<svg width="200" height="200" viewBox="0 0 200 200" fill="none" xmlns="http://www.w3.org/2000/svg">
<g clip-path="url(#clip0_186_2543)">
<rect width="200" height="200" rx="100" fill="white"/>
<path d="M106.469 0.205946C46.1377 -3.61094 -3.61045 46.144 0.205918 106.483C3.34563 156.265 43.7288 196.654 93.504 199.794C153.862 203.611 203.61 153.856 199.794 93.4896C196.627 43.7347 156.244 3.34608 106.469 0.205946ZM169.344 128.491C169.101 128.491 167.693 128.573 165.42 128.573C156.704 128.573 135.132 127.436 115.807 117.257C114.318 116.472 113.75 114.658 114.535 113.17C115.32 111.681 117.133 111.139 118.622 111.897C137.162 121.67 158.599 122.482 166.15 122.509V77.9243C157.3 77.3558 127.066 77.6265 102.247 104.128C76.777 131.307 32.4962 128.437 30.6286 128.302C29.0317 128.194 27.8137 126.867 27.8137 125.27L27.9491 74.8383C27.9491 73.3494 29.0317 72.0772 30.5204 71.8606C31.6842 71.6711 59.292 67.6106 87.0081 86.4785C88.3885 87.4259 88.7403 89.2938 87.8201 90.6743C86.8728 92.0549 84.9781 92.4068 83.6248 91.4864C62.6212 77.1934 41.2658 77.1122 34.039 77.5995L33.9307 122.346C43.8641 122.455 77.8867 121.264 97.8617 99.9594C129.421 66.2841 168.072 71.9147 169.696 72.1584C171.158 72.402 172.267 73.6472 172.267 75.1632V125.459C172.267 127.057 171.022 128.383 169.425 128.491H169.344Z" fill="black"/>
</g>
<defs>
<clipPath id="clip0_186_2543">
<rect width="200" height="200" rx="100" fill="white"/>
</clipPath>
</defs>
</svg>
