<svg width="32" height="32" viewBox="0 0 32 32" fill="none" xmlns="http://www.w3.org/2000/svg">
<rect x="0.5" y="0.5" width="31" height="31" rx="15.5" fill="white"/>
<rect x="0.5" y="0.5" width="31" height="31" rx="15.5" stroke="#666666"/>
<path d="M22.8457 9.55828C23.213 9.0625 24 9.32224 24 9.93922V22.0608C24 22.6778 23.213 22.9375 22.8457 22.4417L18.3563 16.3809C18.1886 16.1546 18.1886 15.8454 18.3563 15.6191L22.8457 9.55828Z" stroke="#666666" stroke-linejoin="round"/>
<path d="M18.0742 16C16.0989 19.5556 15.6051 20 13.6298 20" stroke="#666666" stroke-linecap="round"/>
<path d="M18.3706 12C16.3953 12 15.9015 12.4444 13.9262 16" stroke="#666666" stroke-linecap="round"/>
<path d="M13.6436 16.3809C13.8112 16.1546 13.8112 15.8454 13.6436 15.6191L9.15414 9.55828C8.7869 9.0625 7.99986 9.32224 7.99986 9.93922L7.99986 22.0608C7.99986 22.6778 8.7869 22.9375 9.15414 22.4417L13.6436 16.3809Z" stroke="#666666" stroke-linejoin="round"/>
</svg>
