<svg width="32" height="32" viewBox="0 0 32 32" fill="none" xmlns="http://www.w3.org/2000/svg">
<g clip-path="url(#clip0_186_4353)">
<rect width="32" height="32" rx="16" fill="white"/>
<circle cx="16" cy="16" r="16" fill="#666666"/>
<path d="M17.035 0.0329513C7.38203 -0.577751 -0.577673 7.38303 0.0329469 17.0373C0.535301 25.0024 6.99661 31.4646 14.9606 31.967C24.618 32.5777 32.5777 24.617 31.9671 14.9583C31.4604 6.99756 24.9991 0.535373 17.035 0.0329513ZM27.0951 20.5586C27.0561 20.5586 26.8309 20.5716 26.4671 20.5716C25.0727 20.5716 21.6212 20.3897 18.5291 18.7612C18.2909 18.6355 18.2 18.3454 18.3256 18.1071C18.4511 17.8689 18.7413 17.7823 18.9795 17.9036C21.946 19.4671 25.3758 19.5971 26.5841 19.6014V12.4679C25.168 12.3769 20.3306 12.4202 16.3594 16.6605C12.2843 21.0091 5.19939 20.5499 4.90058 20.5283C4.64507 20.511 4.45019 20.2987 4.45019 20.0432L4.47185 11.9741C4.47185 11.7359 4.64507 11.5323 4.88326 11.4977C5.06948 11.4674 9.48672 10.8177 13.9213 13.8366C14.1422 13.9881 14.1985 14.287 14.0512 14.5079C13.8996 14.7288 13.5965 14.7851 13.38 14.6378C10.0194 12.3509 6.60252 12.338 5.44624 12.4159L5.42892 19.5754C7.01826 19.5927 12.4619 19.4022 15.6579 15.9935C20.7074 10.6055 26.8915 11.5064 27.1514 11.5453C27.3852 11.5843 27.5628 11.7836 27.5628 12.0261V20.0735C27.5628 20.3291 27.3636 20.5413 27.1081 20.5586H27.0951Z" fill="white"/>
<circle cx="16" cy="16" r="15.36" stroke="#666666" stroke-width="1.28"/>
</g>
<defs>
<clipPath id="clip0_186_4353">
<rect width="32" height="32" rx="16" fill="white"/>
</clipPath>
</defs>
</svg>
